<svg xmlns="http://www.w3.org/2000/svg" height="337" width="960.0" font-size="16" font-family="sans-serif" stroke-width="2">
<g transform="translate(10.0 0)">
<text fill="hsl(0, 100%, 40%)" y="22">decode_runs.100 1.34 ms</text>
<g>
<title>1.34 ms ± 116 μs</title>
<rect y="28" rx="5" height="22" width="7.748637523370541" fill="hsl(0, 100%, 80%)" stroke="hsl(0, 100%, 55%)" />
<g stroke="hsl(0, 100%, 40%)"><line x1="7.080943403363743" x2="8.416331643377339" y1="39" y2="39" />
<line x1="7.080943403363743" x2="7.080943403363743" y1="33" y2="45" />
<line x1="8.416331643377339" x2="8.416331643377339" y1="33" y2="45" />
</g>
</g>
<text fill="hsl(60, 100%, 40%)" y="77">decode_runs.1_000 14.9 ms</text>
<g>
<title>14.9 ms ± 679 μs</title>
<rect y="83" rx="5" height="22" width="85.93240184493857" fill="hsl(60, 100%, 80%)" stroke="hsl(60, 100%, 55%)" />
<g stroke="hsl(60, 100%, 40%)"><line x1="82.01791059304786" x2="89.84689309682928" y1="94" y2="94" />
<line x1="82.01791059304786" x2="82.01791059304786" y1="88" y2="100" />
<line x1="89.84689309682928" x2="89.84689309682928" y1="88" y2="100" />
</g>
</g>
<g fill="hsl(120, 100%, 40%)">
<text y="132">decode_runs.10_000</text>
<text y="132" x="918.8624423475005" text-anchor="end">159  ms</text>
</g>
<g>
<title>159  ms ± 3.7 ms</title>
<rect y="138" rx="5" height="22" width="918.8624423475005" fill="hsl(120, 100%, 80%)" stroke="hsl(120, 100%, 55%)" />
<g stroke="hsl(120, 100%, 40%)"><line x1="897.724884695001" x2="940.0" y1="149" y2="149" />
<line x1="897.724884695001" x2="897.724884695001" y1="143" y2="155" />
<line x1="940.0" x2="940.0" y1="143" y2="155" />
</g>
</g>
<text fill="hsl(180, 100%, 40%)" y="187">decode_runs_error.100 1.32 ms</text>
<g>
<title>1.32 ms ±  89 μs</title>
<rect y="193" rx="5" height="22" width="7.5826487001109655" fill="hsl(180, 100%, 80%)" stroke="hsl(180, 100%, 55%)" />
<g stroke="hsl(180, 100%, 40%)"><line x1="7.0694952867681975" x2="8.095802113453733" y1="204" y2="204" />
<line x1="7.0694952867681975" x2="7.0694952867681975" y1="198" y2="210" />
<line x1="8.095802113453733" x2="8.095802113453733" y1="198" y2="210" />
</g>
</g>
<text fill="hsl(240, 100%, 40%)" y="242">decode_runs_error.1_000 13.1 ms</text>
<g>
<title>13.1 ms ± 879 μs</title>
<rect y="248" rx="5" height="22" width="75.51961148300886" fill="hsl(240, 100%, 80%)" stroke="hsl(240, 100%, 55%)" />
<g stroke="hsl(240, 100%, 40%)"><line x1="70.452558450496" x2="80.58666451552172" y1="259" y2="259" />
<line x1="70.452558450496" x2="70.452558450496" y1="253" y2="265" />
<line x1="80.58666451552172" x2="80.58666451552172" y1="253" y2="265" />
</g>
</g>
<g fill="hsl(300, 100%, 40%)">
<text y="297">decode_runs_error.10_000</text>
<text y="297" x="786.689839962479" text-anchor="end">136  ms</text>
</g>
<g>
<title>136  ms ± 6.9 ms</title>
<rect y="303" rx="5" height="22" width="786.689839962479" fill="hsl(300, 100%, 80%)" stroke="hsl(300, 100%, 55%)" />
<g stroke="hsl(300, 100%, 40%)"><line x1="746.7863199129058" x2="826.5933600120522" y1="314" y2="314" />
<line x1="746.7863199129058" x2="746.7863199129058" y1="308" y2="320" />
<line x1="826.5933600120522" x2="826.5933600120522" y1="308" y2="320" />
</g>
</g>
</g>
</svg>
