<svg xmlns="http://www.w3.org/2000/svg" height="337" width="960.0" font-size="16" font-family="sans-serif" stroke-width="2">
<g transform="translate(10.0 0)">
<text fill="hsl(0, 100%, 40%)" y="22">decode_runs.100 1.22 ms</text>
<g>
<title>1.22 ms ±  93 μs</title>
<rect y="28" rx="5" height="22" width="7.4298001401750104" fill="hsl(0, 100%, 80%)" stroke="hsl(0, 100%, 55%)" />
<g stroke="hsl(0, 100%, 40%)"><line x1="6.863251941275494" x2="7.996348339074527" y1="39" y2="39" />
<line x1="6.863251941275494" x2="6.863251941275494" y1="33" y2="45" />
<line x1="7.996348339074527" x2="7.996348339074527" y1="33" y2="45" />
</g>
</g>
<text fill="hsl(60, 100%, 40%)" y="77">decode_runs.1_000 13.0 ms</text>
<g>
<title>13.0 ms ± 1.2 ms</title>
<rect y="83" rx="5" height="22" width="79.31708128509985" fill="hsl(60, 100%, 80%)" stroke="hsl(60, 100%, 55%)" />
<g stroke="hsl(60, 100%, 40%)"><line x1="71.73809247030059" x2="86.8960700998991" y1="94" y2="94" />
<line x1="71.73809247030059" x2="71.73809247030059" y1="88" y2="100" />
<line x1="86.8960700998991" x2="86.8960700998991" y1="88" y2="100" />
</g>
</g>
<g fill="hsl(120, 100%, 40%)">
<text y="132">decode_runs.10_000</text>
<text y="132" x="896.1224707369021" text-anchor="end">147  ms</text>
</g>
<g>
<title>147  ms ± 7.2 ms</title>
<rect y="138" rx="5" height="22" width="896.1224707369021" fill="hsl(120, 100%, 80%)" stroke="hsl(120, 100%, 55%)" />
<g stroke="hsl(120, 100%, 40%)"><line x1="852.2449414738041" x2="940.0" y1="149" y2="149" />
<line x1="852.2449414738041" x2="852.2449414738041" y1="143" y2="155" />
<line x1="940.0" x2="940.0" y1="143" y2="155" />
</g>
</g>
<text fill="hsl(180, 100%, 40%)" y="187">decode_runs_error.100 1.12 ms</text>
<g>
<title>1.12 ms ±  93 μs</title>
<rect y="193" rx="5" height="22" width="6.81740705314939" fill="hsl(180, 100%, 80%)" stroke="hsl(180, 100%, 55%)" />
<g stroke="hsl(180, 100%, 40%)"><line x1="6.248875605453833" x2="7.385938500844947" y1="204" y2="204" />
<line x1="6.248875605453833" x2="6.248875605453833" y1="198" y2="210" />
<line x1="7.385938500844947" x2="7.385938500844947" y1="198" y2="210" />
</g>
</g>
<text fill="hsl(240, 100%, 40%)" y="242">decode_runs_error.1_000 11.9 ms</text>
<g>
<title>11.9 ms ± 1.1 ms</title>
<rect y="248" rx="5" height="22" width="72.35619740933645" fill="hsl(240, 100%, 80%)" stroke="hsl(240, 100%, 55%)" />
<g stroke="hsl(240, 100%, 40%)"><line x1="65.34438727550089" x2="79.368007543172" y1="259" y2="259" />
<line x1="65.34438727550089" x2="65.34438727550089" y1="253" y2="265" />
<line x1="79.368007543172" x2="79.368007543172" y1="253" y2="265" />
</g>
</g>
<g fill="hsl(300, 100%, 40%)">
<text y="297">decode_runs_error.10_000</text>
<text y="297" x="757.1807321416698" text-anchor="end">124  ms</text>
</g>
<g>
<title>124  ms ± 3.6 ms</title>
<rect y="303" rx="5" height="22" width="757.1807321416698" fill="hsl(300, 100%, 80%)" stroke="hsl(300, 100%, 55%)" />
<g stroke="hsl(300, 100%, 40%)"><line x1="735.1985642489184" x2="779.1629000344211" y1="314" y2="314" />
<line x1="735.1985642489184" x2="735.1985642489184" y1="308" y2="320" />
<line x1="779.1629000344211" x2="779.1629000344211" y1="308" y2="320" />
</g>
</g>
</g>
</svg>
