<svg xmlns="http://www.w3.org/2000/svg" height="832" width="960.0" font-size="16" font-family="sans-serif" stroke-width="2">
<g transform="translate(10.0 0)">
<text fill="hsl(0, 100%, 40%)" y="22">decode_runs.100 3.27 ms</text>
<g>
<title>3.27 ms ±  44 μs</title>
<rect y="28" rx="5" height="22" width="6.632365530558576" fill="hsl(0, 100%, 80%)" stroke="hsl(0, 100%, 55%)" />
<g stroke="hsl(0, 100%, 40%)"><line x1="6.5427301226653025" x2="6.722000938451849" y1="39" y2="39" />
<line x1="6.5427301226653025" x2="6.5427301226653025" y1="33" y2="45" />
<line x1="6.722000938451849" x2="6.722000938451849" y1="33" y2="45" />
</g>
</g>
<text fill="hsl(24, 100%, 40%)" y="77">decode_runs.1_000 38.0 ms</text>
<g>
<title>38.0 ms ± 1.5 ms</title>
<rect y="83" rx="5" height="22" width="77.15671124720792" fill="hsl(24, 100%, 80%)" stroke="hsl(24, 100%, 55%)" />
<g stroke="hsl(24, 100%, 40%)"><line x1="74.13568762954263" x2="80.17773486487322" y1="94" y2="94" />
<line x1="74.13568762954263" x2="74.13568762954263" y1="88" y2="100" />
<line x1="80.17773486487322" x2="80.17773486487322" y1="88" y2="100" />
</g>
</g>
<g fill="hsl(48, 100%, 40%)">
<text y="132">decode_runs.10_000</text>
<text y="132" x="882.7939874400238" text-anchor="end">435  ms</text>
</g>
<g>
<title>435  ms ±  28 ms</title>
<rect y="138" rx="5" height="22" width="882.7939874400238" fill="hsl(48, 100%, 80%)" stroke="hsl(48, 100%, 55%)" />
<g stroke="hsl(48, 100%, 40%)"><line x1="825.5879748800476" x2="940.0" y1="149" y2="149" />
<line x1="825.5879748800476" x2="825.5879748800476" y1="143" y2="155" />
<line x1="940.0" x2="940.0" y1="143" y2="155" />
</g>
</g>
<text fill="hsl(72, 100%, 40%)" y="187">decode_runs_error.100 2.80 ms</text>
<g>
<title>2.80 ms ±  91 μs</title>
<rect y="193" rx="5" height="22" width="5.685166416447645" fill="hsl(72, 100%, 80%)" stroke="hsl(72, 100%, 55%)" />
<g stroke="hsl(72, 100%, 40%)"><line x1="5.499836001905462" x2="5.870496830989828" y1="204" y2="204" />
<line x1="5.499836001905462" x2="5.499836001905462" y1="198" y2="210" />
<line x1="5.870496830989828" x2="5.870496830989828" y1="198" y2="210" />
</g>
</g>
<text fill="hsl(96, 100%, 40%)" y="242">decode_runs_error.1_000 30.8 ms</text>
<g>
<title>30.8 ms ± 2.2 ms</title>
<rect y="248" rx="5" height="22" width="62.54278743613345" fill="hsl(96, 100%, 80%)" stroke="hsl(96, 100%, 55%)" />
<g stroke="hsl(96, 100%, 40%)"><line x1="58.09170714765206" x2="66.99386772461484" y1="259" y2="259" />
<line x1="58.09170714765206" x2="58.09170714765206" y1="253" y2="265" />
<line x1="66.99386772461484" x2="66.99386772461484" y1="253" y2="265" />
</g>
</g>
<g fill="hsl(120, 100%, 40%)">
<text y="297">decode_runs_error.10_000</text>
<text y="297" x="579.1918862222514" text-anchor="end">285  ms</text>
</g>
<g>
<title>285  ms ±  14 ms</title>
<rect y="303" rx="5" height="22" width="579.1918862222514" fill="hsl(120, 100%, 80%)" stroke="hsl(120, 100%, 55%)" />
<g stroke="hsl(120, 100%, 40%)"><line x1="551.0096127372761" x2="607.3741597072266" y1="314" y2="314" />
<line x1="551.0096127372761" x2="551.0096127372761" y1="308" y2="320" />
<line x1="607.3741597072266" x2="607.3741597072266" y1="308" y2="320" />
</g>
</g>
<text fill="hsl(144, 100%, 40%)" y="352">strip_comments.100.bytestring 119  μs</text>
<g>
<title>119  μs ± 9.7 μs</title>
<rect y="358" rx="5" height="22" width="0.24129622442689935" fill="hsl(144, 100%, 80%)" stroke="hsl(144, 100%, 55%)" />
<g stroke="hsl(144, 100%, 40%)"><line x1="0.2216065581071738" x2="0.26098589074662487" y1="369" y2="369" />
<line x1="0.2216065581071738" x2="0.2216065581071738" y1="363" y2="375" />
<line x1="0.26098589074662487" x2="0.26098589074662487" y1="363" y2="375" />
</g>
</g>
<text fill="hsl(168, 100%, 40%)" y="407">strip_comments.100.megaparsec_auto 122  μs</text>
<g>
<title>122  μs ± 7.0 μs</title>
<rect y="413" rx="5" height="22" width="0.24766000998212515" fill="hsl(168, 100%, 80%)" stroke="hsl(168, 100%, 55%)" />
<g stroke="hsl(168, 100%, 40%)"><line x1="0.2334967684024067" x2="0.26182325156184355" y1="424" y2="424" />
<line x1="0.2334967684024067" x2="0.2334967684024067" y1="418" y2="430" />
<line x1="0.26182325156184355" x2="0.26182325156184355" y1="418" y2="430" />
</g>
</g>
<text fill="hsl(192, 100%, 40%)" y="462">strip_comments.100.megaparsec_manual 121  μs</text>
<g>
<title>121  μs ± 3.3 μs</title>
<rect y="468" rx="5" height="22" width="0.24575748811304632" fill="hsl(192, 100%, 80%)" stroke="hsl(192, 100%, 55%)" />
<g stroke="hsl(192, 100%, 40%)"><line x1="0.23902887643078247" x2="0.25248609979531017" y1="479" y2="479" />
<line x1="0.23902887643078247" x2="0.23902887643078247" y1="473" y2="485" />
<line x1="0.25248609979531017" x2="0.25248609979531017" y1="473" y2="485" />
</g>
</g>
<text fill="hsl(216, 100%, 40%)" y="517">strip_comments.1_000.bytestring 1.10 ms</text>
<g>
<title>1.10 ms ±  95 μs</title>
<rect y="523" rx="5" height="22" width="2.232646571843691" fill="hsl(216, 100%, 80%)" stroke="hsl(216, 100%, 55%)" />
<g stroke="hsl(216, 100%, 40%)"><line x1="2.0401621978479865" x2="2.4251309458393955" y1="534" y2="534" />
<line x1="2.0401621978479865" x2="2.0401621978479865" y1="528" y2="540" />
<line x1="2.4251309458393955" x2="2.4251309458393955" y1="528" y2="540" />
</g>
</g>
<text fill="hsl(240, 100%, 40%)" y="572">strip_comments.1_000.megaparsec_auto 1.18 ms</text>
<g>
<title>1.18 ms ±  94 μs</title>
<rect y="578" rx="5" height="22" width="2.3841949136453864" fill="hsl(240, 100%, 80%)" stroke="hsl(240, 100%, 55%)" />
<g stroke="hsl(240, 100%, 40%)"><line x1="2.1940616841921523" x2="2.5743281430986205" y1="589" y2="589" />
<line x1="2.1940616841921523" x2="2.1940616841921523" y1="583" y2="595" />
<line x1="2.5743281430986205" x2="2.5743281430986205" y1="583" y2="595" />
</g>
</g>
<text fill="hsl(264, 100%, 40%)" y="627">strip_comments.1_000.megaparsec_manual 1.17 ms</text>
<g>
<title>1.17 ms ±  87 μs</title>
<rect y="633" rx="5" height="22" width="2.374149355505715" fill="hsl(264, 100%, 80%)" stroke="hsl(264, 100%, 55%)" />
<g stroke="hsl(264, 100%, 40%)"><line x1="2.197770982478136" x2="2.5505277285332943" y1="644" y2="644" />
<line x1="2.197770982478136" x2="2.197770982478136" y1="638" y2="650" />
<line x1="2.5505277285332943" x2="2.5505277285332943" y1="638" y2="650" />
</g>
</g>
<text fill="hsl(288, 100%, 40%)" y="682">strip_comments.10_000.bytestring 8.65 ms</text>
<g>
<title>8.65 ms ± 380 μs</title>
<rect y="688" rx="5" height="22" width="17.5496720952166" fill="hsl(288, 100%, 80%)" stroke="hsl(288, 100%, 55%)" />
<g stroke="hsl(288, 100%, 40%)"><line x1="16.77950252384748" x2="18.31984166658572" y1="699" y2="699" />
<line x1="16.77950252384748" x2="16.77950252384748" y1="693" y2="705" />
<line x1="18.31984166658572" x2="18.31984166658572" y1="693" y2="705" />
</g>
</g>
<text fill="hsl(312, 100%, 40%)" y="737">strip_comments.10_000.megaparsec_auto 11.6 ms</text>
<g>
<title>11.6 ms ± 677 μs</title>
<rect y="743" rx="5" height="22" width="23.615393803766917" fill="hsl(312, 100%, 80%)" stroke="hsl(312, 100%, 55%)" />
<g stroke="hsl(312, 100%, 40%)"><line x1="22.24089532870953" x2="24.989892278824303" y1="754" y2="754" />
<line x1="22.24089532870953" x2="22.24089532870953" y1="748" y2="760" />
<line x1="24.989892278824303" x2="24.989892278824303" y1="748" y2="760" />
</g>
</g>
<text fill="hsl(336, 100%, 40%)" y="792">strip_comments.10_000.megaparsec_manual 11.8 ms</text>
<g>
<title>11.8 ms ± 1.1 ms</title>
<rect y="798" rx="5" height="22" width="23.86873363654947" fill="hsl(336, 100%, 80%)" stroke="hsl(336, 100%, 55%)" />
<g stroke="hsl(336, 100%, 40%)"><line x1="21.70625752037673" x2="26.031209752722212" y1="809" y2="809" />
<line x1="21.70625752037673" x2="21.70625752037673" y1="803" y2="815" />
<line x1="26.031209752722212" x2="26.031209752722212" y1="803" y2="815" />
</g>
</g>
</g>
</svg>
