<svg xmlns="http://www.w3.org/2000/svg" height="832" width="960.0" font-size="16" font-family="sans-serif" stroke-width="2">
<g transform="translate(10.0 0)">
<text fill="hsl(0, 100%, 40%)" y="22">decode_runs.100 1.36 ms</text>
<g>
<title>1.36 ms ±  95 μs</title>
<rect y="28" rx="5" height="22" width="7.806531856190215" fill="hsl(0, 100%, 80%)" stroke="hsl(0, 100%, 55%)" />
<g stroke="hsl(0, 100%, 40%)"><line x1="7.26112999827156" x2="8.35193371410887" y1="39" y2="39" />
<line x1="7.26112999827156" x2="7.26112999827156" y1="33" y2="45" />
<line x1="8.35193371410887" x2="8.35193371410887" y1="33" y2="45" />
</g>
</g>
<text fill="hsl(24, 100%, 40%)" y="77">decode_runs.1_000 14.4 ms</text>
<g>
<title>14.4 ms ± 1.2 ms</title>
<rect y="83" rx="5" height="22" width="82.43716255586196" fill="hsl(24, 100%, 80%)" stroke="hsl(24, 100%, 55%)" />
<g stroke="hsl(24, 100%, 40%)"><line x1="75.80489407760717" x2="89.06943103411675" y1="94" y2="94" />
<line x1="75.80489407760717" x2="75.80489407760717" y1="88" y2="100" />
<line x1="89.06943103411675" x2="89.06943103411675" y1="88" y2="100" />
</g>
</g>
<g fill="hsl(48, 100%, 40%)">
<text y="132">decode_runs.10_000</text>
<text y="132" x="912.0126119542621" text-anchor="end">159  ms</text>
</g>
<g>
<title>159  ms ± 4.9 ms</title>
<rect y="138" rx="5" height="22" width="912.0126119542621" fill="hsl(48, 100%, 80%)" stroke="hsl(48, 100%, 55%)" />
<g stroke="hsl(48, 100%, 40%)"><line x1="884.0252239085241" x2="940.0" y1="149" y2="149" />
<line x1="884.0252239085241" x2="884.0252239085241" y1="143" y2="155" />
<line x1="940.0" x2="940.0" y1="143" y2="155" />
</g>
</g>
<text fill="hsl(72, 100%, 40%)" y="187">decode_runs_error.100 1.26 ms</text>
<g>
<title>1.26 ms ±  88 μs</title>
<rect y="193" rx="5" height="22" width="7.212874032541602" fill="hsl(72, 100%, 80%)" stroke="hsl(72, 100%, 55%)" />
<g stroke="hsl(72, 100%, 40%)"><line x1="6.709531257551636" x2="7.716216807531567" y1="204" y2="204" />
<line x1="6.709531257551636" x2="6.709531257551636" y1="198" y2="210" />
<line x1="7.716216807531567" x2="7.716216807531567" y1="198" y2="210" />
</g>
</g>
<text fill="hsl(96, 100%, 40%)" y="242">decode_runs_error.1_000 12.7 ms</text>
<g>
<title>12.7 ms ± 995 μs</title>
<rect y="248" rx="5" height="22" width="72.52059951520884" fill="hsl(96, 100%, 80%)" stroke="hsl(96, 100%, 55%)" />
<g stroke="hsl(96, 100%, 40%)"><line x1="66.82571572869419" x2="78.2154833017235" y1="259" y2="259" />
<line x1="66.82571572869419" x2="66.82571572869419" y1="253" y2="265" />
<line x1="78.2154833017235" x2="78.2154833017235" y1="253" y2="265" />
</g>
</g>
<g fill="hsl(120, 100%, 40%)">
<text y="297">decode_runs_error.10_000</text>
<text y="297" x="727.855231305945" text-anchor="end">127  ms</text>
</g>
<g>
<title>127  ms ± 4.7 ms</title>
<rect y="303" rx="5" height="22" width="727.855231305945" fill="hsl(120, 100%, 80%)" stroke="hsl(120, 100%, 55%)" />
<g stroke="hsl(120, 100%, 40%)"><line x1="701.120088850311" x2="754.590373761579" y1="314" y2="314" />
<line x1="701.120088850311" x2="701.120088850311" y1="308" y2="320" />
<line x1="754.590373761579" x2="754.590373761579" y1="308" y2="320" />
</g>
</g>
<text fill="hsl(144, 100%, 40%)" y="352">strip_comments.100.bytestring 69.4 ns</text>
<g>
<title>69.4 ns ± 2.0 ns</title>
<rect y="358" rx="5" height="22" width="0.000397009402596035" fill="hsl(144, 100%, 80%)" stroke="hsl(144, 100%, 55%)" />
<g stroke="hsl(144, 100%, 40%)"><line x1="0.0003853787819957763" x2="0.00040864002319629367" y1="369" y2="369" />
<line x1="0.0003853787819957763" x2="0.0003853787819957763" y1="363" y2="375" />
<line x1="0.00040864002319629367" x2="0.00040864002319629367" y1="363" y2="375" />
</g>
</g>
<text fill="hsl(168, 100%, 40%)" y="407">strip_comments.100.megaparsec_auto 7.28 μs</text>
<g>
<title>7.28 μs ± 656 ns</title>
<rect y="413" rx="5" height="22" width="0.04167884978051255" fill="hsl(168, 100%, 80%)" stroke="hsl(168, 100%, 55%)" />
<g stroke="hsl(168, 100%, 40%)"><line x1="0.03792407105265285" x2="0.045433628508372244" y1="424" y2="424" />
<line x1="0.03792407105265285" x2="0.03792407105265285" y1="418" y2="430" />
<line x1="0.045433628508372244" x2="0.045433628508372244" y1="418" y2="430" />
</g>
</g>
<text fill="hsl(192, 100%, 40%)" y="462">strip_comments.100.megaparsec_manual 7.22 μs</text>
<g>
<title>7.22 μs ± 663 ns</title>
<rect y="468" rx="5" height="22" width="0.04133426975030744" fill="hsl(192, 100%, 80%)" stroke="hsl(192, 100%, 55%)" />
<g stroke="hsl(192, 100%, 40%)"><line x1="0.037542057824255966" x2="0.045126481676358916" y1="479" y2="479" />
<line x1="0.037542057824255966" x2="0.037542057824255966" y1="473" y2="485" />
<line x1="0.045126481676358916" x2="0.045126481676358916" y1="473" y2="485" />
</g>
</g>
<text fill="hsl(216, 100%, 40%)" y="517">strip_comments.1_000.bytestring 1.08 μs</text>
<g>
<title>1.08 μs ±  83 ns</title>
<rect y="523" rx="5" height="22" width="0.00619817636438717" fill="hsl(216, 100%, 80%)" stroke="hsl(216, 100%, 55%)" />
<g stroke="hsl(216, 100%, 40%)"><line x1="0.005723324225490192" x2="0.006673028503284149" y1="534" y2="534" />
<line x1="0.005723324225490192" x2="0.005723324225490192" y1="528" y2="540" />
<line x1="0.006673028503284149" x2="0.006673028503284149" y1="528" y2="540" />
</g>
</g>
<text fill="hsl(240, 100%, 40%)" y="572">strip_comments.1_000.megaparsec_auto 68.4 μs</text>
<g>
<title>68.4 μs ± 5.6 μs</title>
<rect y="578" rx="5" height="22" width="0.3913193046267379" fill="hsl(240, 100%, 80%)" stroke="hsl(240, 100%, 55%)" />
<g stroke="hsl(240, 100%, 40%)"><line x1="0.35912359468251237" x2="0.42351501457096347" y1="589" y2="589" />
<line x1="0.35912359468251237" x2="0.35912359468251237" y1="583" y2="595" />
<line x1="0.42351501457096347" x2="0.42351501457096347" y1="583" y2="595" />
</g>
</g>
<text fill="hsl(264, 100%, 40%)" y="627">strip_comments.1_000.megaparsec_manual 68.3 μs</text>
<g>
<title>68.3 μs ± 5.5 μs</title>
<rect y="633" rx="5" height="22" width="0.39113579037590845" fill="hsl(264, 100%, 80%)" stroke="hsl(264, 100%, 55%)" />
<g stroke="hsl(264, 100%, 40%)"><line x1="0.35976192801510254" x2="0.42250965273671437" y1="644" y2="644" />
<line x1="0.35976192801510254" x2="0.35976192801510254" y1="638" y2="650" />
<line x1="0.42250965273671437" x2="0.42250965273671437" y1="638" y2="650" />
</g>
</g>
<text fill="hsl(288, 100%, 40%)" y="682">strip_comments.10_000.bytestring 18.0 μs</text>
<g>
<title>18.0 μs ± 1.4 μs</title>
<rect y="688" rx="5" height="22" width="0.10307931134359573" fill="hsl(288, 100%, 80%)" stroke="hsl(288, 100%, 55%)" />
<g stroke="hsl(288, 100%, 40%)"><line x1="0.09490707180526967" x2="0.11125155088192179" y1="699" y2="699" />
<line x1="0.09490707180526967" x2="0.09490707180526967" y1="693" y2="705" />
<line x1="0.11125155088192179" x2="0.11125155088192179" y1="693" y2="705" />
</g>
</g>
<text fill="hsl(312, 100%, 40%)" y="737">strip_comments.10_000.megaparsec_auto 681  μs</text>
<g>
<title>681  μs ±  44 μs</title>
<rect y="743" rx="5" height="22" width="3.8986701444574754" fill="hsl(312, 100%, 80%)" stroke="hsl(312, 100%, 55%)" />
<g stroke="hsl(312, 100%, 40%)"><line x1="3.6440030765593714" x2="4.15333721235558" y1="754" y2="754" />
<line x1="3.6440030765593714" x2="3.6440030765593714" y1="748" y2="760" />
<line x1="4.15333721235558" x2="4.15333721235558" y1="748" y2="760" />
</g>
</g>
<text fill="hsl(336, 100%, 40%)" y="792">strip_comments.10_000.megaparsec_manual 679  μs</text>
<g>
<title>679  μs ±  44 μs</title>
<rect y="798" rx="5" height="22" width="3.885603319648734" fill="hsl(336, 100%, 80%)" stroke="hsl(336, 100%, 55%)" />
<g stroke="hsl(336, 100%, 40%)"><line x1="3.6341457535581627" x2="4.137060885739305" y1="809" y2="809" />
<line x1="3.6341457535581627" x2="3.6341457535581627" y1="803" y2="815" />
<line x1="4.137060885739305" x2="4.137060885739305" y1="803" y2="815" />
</g>
</g>
</g>
</svg>
