<svg xmlns="http://www.w3.org/2000/svg" height="832" width="960.0" font-size="16" font-family="sans-serif" stroke-width="2">
<g transform="translate(10.0 0)">
<text fill="hsl(0, 100%, 40%)" y="22">decode_runs.100 1.41 ms</text>
<g>
<title>1.41 ms ±  86 μs</title>
<rect y="28" rx="5" height="22" width="7.689439737273355" fill="hsl(0, 100%, 80%)" stroke="hsl(0, 100%, 55%)" />
<g stroke="hsl(0, 100%, 40%)"><line x1="7.221013021750395" x2="8.157866452796316" y1="39" y2="39" />
<line x1="7.221013021750395" x2="7.221013021750395" y1="33" y2="45" />
<line x1="8.157866452796316" x2="8.157866452796316" y1="33" y2="45" />
</g>
</g>
<text fill="hsl(24, 100%, 40%)" y="77">decode_runs.1_000 15.1 ms</text>
<g>
<title>15.1 ms ± 1.0 ms</title>
<rect y="83" rx="5" height="22" width="82.43983707745244" fill="hsl(24, 100%, 80%)" stroke="hsl(24, 100%, 55%)" />
<g stroke="hsl(24, 100%, 40%)"><line x1="76.98659280596095" x2="87.89308134894392" y1="94" y2="94" />
<line x1="76.98659280596095" x2="76.98659280596095" y1="88" y2="100" />
<line x1="87.89308134894392" x2="87.89308134894392" y1="88" y2="100" />
</g>
</g>
<g fill="hsl(48, 100%, 40%)">
<text y="132">decode_runs.10_000</text>
<text y="132" x="915.0921633910528" text-anchor="end">168  ms</text>
</g>
<g>
<title>168  ms ± 4.6 ms</title>
<rect y="138" rx="5" height="22" width="915.0921633910528" fill="hsl(48, 100%, 80%)" stroke="hsl(48, 100%, 55%)" />
<g stroke="hsl(48, 100%, 40%)"><line x1="890.1843267821057" x2="940.0" y1="149" y2="149" />
<line x1="890.1843267821057" x2="890.1843267821057" y1="143" y2="155" />
<line x1="940.0" x2="940.0" y1="143" y2="155" />
</g>
</g>
<text fill="hsl(72, 100%, 40%)" y="187">decode_runs_error.100 1.32 ms</text>
<g>
<title>1.32 ms ± 103 μs</title>
<rect y="193" rx="5" height="22" width="7.173640467057394" fill="hsl(72, 100%, 80%)" stroke="hsl(72, 100%, 55%)" />
<g stroke="hsl(72, 100%, 40%)"><line x1="6.6102693699306485" x2="7.73701156418414" y1="204" y2="204" />
<line x1="6.6102693699306485" x2="6.6102693699306485" y1="198" y2="210" />
<line x1="7.73701156418414" x2="7.73701156418414" y1="198" y2="210" />
</g>
</g>
<text fill="hsl(96, 100%, 40%)" y="242">decode_runs_error.1_000 13.2 ms</text>
<g>
<title>13.2 ms ± 1.2 ms</title>
<rect y="248" rx="5" height="22" width="71.76101155573348" fill="hsl(96, 100%, 80%)" stroke="hsl(96, 100%, 55%)" />
<g stroke="hsl(96, 100%, 40%)"><line x1="65.18030047166056" x2="78.34172263980639" y1="259" y2="259" />
<line x1="65.18030047166056" x2="65.18030047166056" y1="253" y2="265" />
<line x1="78.34172263980639" x2="78.34172263980639" y1="253" y2="265" />
</g>
</g>
<g fill="hsl(120, 100%, 40%)">
<text y="297">decode_runs_error.10_000</text>
<text y="297" x="737.0774558836154" text-anchor="end">135  ms</text>
</g>
<g>
<title>135  ms ± 6.2 ms</title>
<rect y="303" rx="5" height="22" width="737.0774558836154" fill="hsl(120, 100%, 80%)" stroke="hsl(120, 100%, 55%)" />
<g stroke="hsl(120, 100%, 40%)"><line x1="703.531966092835" x2="770.6229456743957" y1="314" y2="314" />
<line x1="703.531966092835" x2="703.531966092835" y1="308" y2="320" />
<line x1="770.6229456743957" x2="770.6229456743957" y1="308" y2="320" />
</g>
</g>
<text fill="hsl(144, 100%, 40%)" y="352">strip_comments.100.bytestring 63.5 ns</text>
<g>
<title>63.5 ns ± 5.4 ns</title>
<rect y="358" rx="5" height="22" width="0.0003456233004697377" fill="hsl(144, 100%, 80%)" stroke="hsl(144, 100%, 55%)" />
<g stroke="hsl(144, 100%, 40%)"><line x1="0.00031637812633765667" x2="0.00037486847460181877" y1="369" y2="369" />
<line x1="0.00031637812633765667" x2="0.00031637812633765667" y1="363" y2="375" />
<line x1="0.00037486847460181877" x2="0.00037486847460181877" y1="363" y2="375" />
</g>
</g>
<text fill="hsl(168, 100%, 40%)" y="407">strip_comments.100.megaparsec_auto 7.25 μs</text>
<g>
<title>7.25 μs ± 686 ns</title>
<rect y="413" rx="5" height="22" width="0.0394545000127561" fill="hsl(168, 100%, 80%)" stroke="hsl(168, 100%, 55%)" />
<g stroke="hsl(168, 100%, 40%)"><line x1="0.03571919662154369" x2="0.0431898034039685" y1="424" y2="424" />
<line x1="0.03571919662154369" x2="0.03571919662154369" y1="418" y2="430" />
<line x1="0.0431898034039685" x2="0.0431898034039685" y1="418" y2="430" />
</g>
</g>
<text fill="hsl(192, 100%, 40%)" y="462">strip_comments.100.megaparsec_manual 7.21 μs</text>
<g>
<title>7.21 μs ± 659 ns</title>
<rect y="468" rx="5" height="22" width="0.03924774229340347" fill="hsl(192, 100%, 80%)" stroke="hsl(192, 100%, 55%)" />
<g stroke="hsl(192, 100%, 40%)"><line x1="0.035661332333410796" x2="0.042834152253396145" y1="479" y2="479" />
<line x1="0.035661332333410796" x2="0.035661332333410796" y1="473" y2="485" />
<line x1="0.042834152253396145" x2="0.042834152253396145" y1="473" y2="485" />
</g>
</g>
<text fill="hsl(216, 100%, 40%)" y="517">strip_comments.1_000.bytestring 1.08 μs</text>
<g>
<title>1.08 μs ±  84 ns</title>
<rect y="523" rx="5" height="22" width="0.005886299014229709" fill="hsl(216, 100%, 80%)" stroke="hsl(216, 100%, 55%)" />
<g stroke="hsl(216, 100%, 40%)"><line x1="0.005427086629942794" x2="0.006345511398516623" y1="534" y2="534" />
<line x1="0.005427086629942794" x2="0.005427086629942794" y1="528" y2="540" />
<line x1="0.006345511398516623" x2="0.006345511398516623" y1="528" y2="540" />
</g>
</g>
<text fill="hsl(240, 100%, 40%)" y="572">strip_comments.1_000.megaparsec_auto 68.7 μs</text>
<g>
<title>68.7 μs ± 6.0 μs</title>
<rect y="578" rx="5" height="22" width="0.373904919063782" fill="hsl(240, 100%, 80%)" stroke="hsl(240, 100%, 55%)" />
<g stroke="hsl(240, 100%, 40%)"><line x1="0.3414243423893069" x2="0.40638549573825705" y1="589" y2="589" />
<line x1="0.3414243423893069" x2="0.3414243423893069" y1="583" y2="595" />
<line x1="0.40638549573825705" x2="0.40638549573825705" y1="583" y2="595" />
</g>
</g>
<text fill="hsl(264, 100%, 40%)" y="627">strip_comments.1_000.megaparsec_manual 68.4 μs</text>
<g>
<title>68.4 μs ± 5.4 μs</title>
<rect y="633" rx="5" height="22" width="0.3723829396646558" fill="hsl(264, 100%, 80%)" stroke="hsl(264, 100%, 55%)" />
<g stroke="hsl(264, 100%, 40%)"><line x1="0.3429930313182271" x2="0.4017728480110845" y1="644" y2="644" />
<line x1="0.3429930313182271" x2="0.3429930313182271" y1="638" y2="650" />
<line x1="0.4017728480110845" x2="0.4017728480110845" y1="638" y2="650" />
</g>
</g>
<text fill="hsl(288, 100%, 40%)" y="682">strip_comments.10_000.bytestring 13.5 μs</text>
<g>
<title>13.5 μs ± 1.3 μs</title>
<rect y="688" rx="5" height="22" width="0.07369272689577244" fill="hsl(288, 100%, 80%)" stroke="hsl(288, 100%, 55%)" />
<g stroke="hsl(288, 100%, 40%)"><line x1="0.06645646258648419" x2="0.0809289912050607" y1="699" y2="699" />
<line x1="0.06645646258648419" x2="0.06645646258648419" y1="693" y2="705" />
<line x1="0.0809289912050607" x2="0.0809289912050607" y1="693" y2="705" />
</g>
</g>
<text fill="hsl(312, 100%, 40%)" y="737">strip_comments.10_000.megaparsec_auto 679  μs</text>
<g>
<title>679  μs ±  42 μs</title>
<rect y="743" rx="5" height="22" width="3.6976305276772212" fill="hsl(312, 100%, 80%)" stroke="hsl(312, 100%, 55%)" />
<g stroke="hsl(312, 100%, 40%)"><line x1="3.468905741094576" x2="3.9263553142598666" y1="754" y2="754" />
<line x1="3.468905741094576" x2="3.468905741094576" y1="748" y2="760" />
<line x1="3.9263553142598666" x2="3.9263553142598666" y1="748" y2="760" />
</g>
</g>
<text fill="hsl(336, 100%, 40%)" y="792">strip_comments.10_000.megaparsec_manual 680  μs</text>
<g>
<title>680  μs ±  50 μs</title>
<rect y="798" rx="5" height="22" width="3.702967570528284" fill="hsl(336, 100%, 80%)" stroke="hsl(336, 100%, 55%)" />
<g stroke="hsl(336, 100%, 40%)"><line x1="3.4293947541259757" x2="3.976540386930592" y1="809" y2="809" />
<line x1="3.4293947541259757" x2="3.4293947541259757" y1="803" y2="815" />
<line x1="3.976540386930592" x2="3.976540386930592" y1="803" y2="815" />
</g>
</g>
</g>
</svg>
