<svg xmlns="http://www.w3.org/2000/svg" height="337" width="960.0" font-size="16" font-family="sans-serif" stroke-width="2">
<g transform="translate(10.0 0)">
<text fill="hsl(0, 100%, 40%)" y="22">decode_runs.100 1.36 ms</text>
<g>
<title>1.36 ms ±  95 μs</title>
<rect y="28" rx="5" height="22" width="7.763914504927823" fill="hsl(0, 100%, 80%)" stroke="hsl(0, 100%, 55%)" />
<g stroke="hsl(0, 100%, 40%)"><line x1="7.21711239175699" x2="8.310716618098656" y1="39" y2="39" />
<line x1="7.21711239175699" x2="7.21711239175699" y1="33" y2="45" />
<line x1="8.310716618098656" x2="8.310716618098656" y1="33" y2="45" />
</g>
</g>
<text fill="hsl(60, 100%, 40%)" y="77">decode_runs.1_000 14.5 ms</text>
<g>
<title>14.5 ms ± 964 μs</title>
<rect y="83" rx="5" height="22" width="83.07259671680652" fill="hsl(60, 100%, 80%)" stroke="hsl(60, 100%, 55%)" />
<g stroke="hsl(60, 100%, 40%)"><line x1="77.55233756116043" x2="88.5928558724526" y1="94" y2="94" />
<line x1="77.55233756116043" x2="77.55233756116043" y1="88" y2="100" />
<line x1="88.5928558724526" x2="88.5928558724526" y1="88" y2="100" />
</g>
</g>
<g fill="hsl(120, 100%, 40%)">
<text y="132">decode_runs.10_000</text>
<text y="132" x="915.0628318147513" text-anchor="end">160  ms</text>
</g>
<g>
<title>160  ms ± 4.4 ms</title>
<rect y="138" rx="5" height="22" width="915.0628318147513" fill="hsl(120, 100%, 80%)" stroke="hsl(120, 100%, 55%)" />
<g stroke="hsl(120, 100%, 40%)"><line x1="890.1256636295027" x2="940.0" y1="149" y2="149" />
<line x1="890.1256636295027" x2="890.1256636295027" y1="143" y2="155" />
<line x1="940.0" x2="940.0" y1="143" y2="155" />
</g>
</g>
<text fill="hsl(180, 100%, 40%)" y="187">decode_runs_error.100 1.32 ms</text>
<g>
<title>1.32 ms ± 100 μs</title>
<rect y="193" rx="5" height="22" width="7.546106740939513" fill="hsl(180, 100%, 80%)" stroke="hsl(180, 100%, 55%)" />
<g stroke="hsl(180, 100%, 40%)"><line x1="6.975607369105777" x2="8.11660611277325" y1="204" y2="204" />
<line x1="6.975607369105777" x2="6.975607369105777" y1="198" y2="210" />
<line x1="8.11660611277325" x2="8.11660611277325" y1="198" y2="210" />
</g>
</g>
<text fill="hsl(240, 100%, 40%)" y="242">decode_runs_error.1_000 13.1 ms</text>
<g>
<title>13.1 ms ± 1.3 ms</title>
<rect y="248" rx="5" height="22" width="75.14836571385959" fill="hsl(240, 100%, 80%)" stroke="hsl(240, 100%, 55%)" />
<g stroke="hsl(240, 100%, 40%)"><line x1="67.74527920265369" x2="82.55145222506549" y1="259" y2="259" />
<line x1="67.74527920265369" x2="67.74527920265369" y1="253" y2="265" />
<line x1="82.55145222506549" x2="82.55145222506549" y1="253" y2="265" />
</g>
</g>
<g fill="hsl(300, 100%, 40%)">
<text y="297">decode_runs_error.10_000</text>
<text y="297" x="793.2633397223608" text-anchor="end">138  ms</text>
</g>
<g>
<title>138  ms ± 3.3 ms</title>
<rect y="303" rx="5" height="22" width="793.2633397223608" fill="hsl(300, 100%, 80%)" stroke="hsl(300, 100%, 55%)" />
<g stroke="hsl(300, 100%, 40%)"><line x1="774.0909379845065" x2="812.4357414602151" y1="314" y2="314" />
<line x1="774.0909379845065" x2="774.0909379845065" y1="308" y2="320" />
<line x1="812.4357414602151" x2="812.4357414602151" y1="308" y2="320" />
</g>
</g>
</g>
</svg>
