<svg xmlns="http://www.w3.org/2000/svg" height="337" width="960.0" font-size="16" font-family="sans-serif" stroke-width="2">
<g transform="translate(10.0 0)">
<text fill="hsl(0, 100%, 40%)" y="22">decode_runs.100 1.14 ms</text>
<g>
<title>1.14 ms ±  92 μs</title>
<rect y="28" rx="5" height="22" width="7.2806985751445925" fill="hsl(0, 100%, 80%)" stroke="hsl(0, 100%, 55%)" />
<g stroke="hsl(0, 100%, 40%)"><line x1="6.692429699023766" x2="7.868967451265419" y1="39" y2="39" />
<line x1="6.692429699023766" x2="6.692429699023766" y1="33" y2="45" />
<line x1="7.868967451265419" x2="7.868967451265419" y1="33" y2="45" />
</g>
</g>
<text fill="hsl(60, 100%, 40%)" y="77">decode_runs.1_000 12.1 ms</text>
<g>
<title>12.1 ms ± 560 μs</title>
<rect y="83" rx="5" height="22" width="77.45575629945752" fill="hsl(60, 100%, 80%)" stroke="hsl(60, 100%, 55%)" />
<g stroke="hsl(60, 100%, 40%)"><line x1="73.88383441877107" x2="81.02767818014397" y1="94" y2="94" />
<line x1="73.88383441877107" x2="73.88383441877107" y1="88" y2="100" />
<line x1="81.02767818014397" x2="81.02767818014397" y1="88" y2="100" />
</g>
</g>
<g fill="hsl(120, 100%, 40%)">
<text y="132">decode_runs.10_000</text>
<text y="132" x="906.0878893941795" text-anchor="end">142  ms</text>
</g>
<g>
<title>142  ms ± 5.3 ms</title>
<rect y="138" rx="5" height="22" width="906.0878893941795" fill="hsl(120, 100%, 80%)" stroke="hsl(120, 100%, 55%)" />
<g stroke="hsl(120, 100%, 40%)"><line x1="872.1757787883589" x2="940.0" y1="149" y2="149" />
<line x1="872.1757787883589" x2="872.1757787883589" y1="143" y2="155" />
<line x1="940.0" x2="940.0" y1="143" y2="155" />
</g>
</g>
<text fill="hsl(180, 100%, 40%)" y="187">decode_runs_error.100 1.11 ms</text>
<g>
<title>1.11 ms ±  89 μs</title>
<rect y="193" rx="5" height="22" width="7.0739576830844975" fill="hsl(180, 100%, 80%)" stroke="hsl(180, 100%, 55%)" />
<g stroke="hsl(180, 100%, 40%)"><line x1="6.508012471097993" x2="7.6399028950710015" y1="204" y2="204" />
<line x1="6.508012471097993" x2="6.508012471097993" y1="198" y2="210" />
<line x1="7.6399028950710015" x2="7.6399028950710015" y1="198" y2="210" />
</g>
</g>
<text fill="hsl(240, 100%, 40%)" y="242">decode_runs_error.1_000 11.1 ms</text>
<g>
<title>11.1 ms ± 1.0 ms</title>
<rect y="248" rx="5" height="22" width="70.5412738600878" fill="hsl(240, 100%, 80%)" stroke="hsl(240, 100%, 55%)" />
<g stroke="hsl(240, 100%, 40%)"><line x1="63.86498998579232" x2="77.21755773438328" y1="259" y2="259" />
<line x1="63.86498998579232" x2="63.86498998579232" y1="253" y2="265" />
<line x1="77.21755773438328" x2="77.21755773438328" y1="253" y2="265" />
</g>
</g>
<g fill="hsl(300, 100%, 40%)">
<text y="297">decode_runs_error.10_000</text>
<text y="297" x="757.5774690618617" text-anchor="end">119  ms</text>
</g>
<g>
<title>119  ms ± 6.0 ms</title>
<rect y="303" rx="5" height="22" width="757.5774690618617" fill="hsl(300, 100%, 80%)" stroke="hsl(300, 100%, 55%)" />
<g stroke="hsl(300, 100%, 40%)"><line x1="719.3018804425435" x2="795.85305768118" y1="314" y2="314" />
<line x1="719.3018804425435" x2="719.3018804425435" y1="308" y2="320" />
<line x1="795.85305768118" x2="795.85305768118" y1="308" y2="320" />
</g>
</g>
</g>
</svg>
